<?xml version="1.0" encoding="UTF-8"?>
<!DOCTYPE svg PUBLIC "-//W3C//DTD SVG 1.1//EN" "http://www.w3.org/Graphics/SVG/1.1/DTD/svg11.dtd">
<!-- Creator: CorelDRAW X7 -->
<svg xmlns="http://www.w3.org/2000/svg" xml:space="preserve" width="160.131mm" height="153.934mm" version="1.1" style="shape-rendering:geometricPrecision; text-rendering:geometricPrecision; image-rendering:optimizeQuality; fill-rule:evenodd; clip-rule:evenodd"
viewBox="0 0 16758 16110"
 xmlns:xlink="http://www.w3.org/1999/xlink">
 <defs>
  <style type="text/css">
   <![CDATA[
    .fil0 {fill:#2B2A29}
   ]]>
  </style>
 </defs>
 <g id="Vrstva_x0020_2">
  <metadata id="CorelCorpID_0Corel-Layer"/>
  <path class="fil0" d="M12649 13561c-787,756 -2835,1160 -4270,1160 -1393,0 -3383,-353 -4207,-1063l81 769c119,1124 2548,1683 4126,1683 1564,0 3936,-592 4126,-1683 54,-313 102,-599 144,-866z"/>
  <path class="fil0" d="M5217 10143c-19,-173 106,-330 278,-350 173,-19 330,106 350,278l254 2223c20,173 -105,330 -278,350 -172,19 -330,-106 -349,-278l-255 -2223zm-2897 -5187c-63,150 -236,220 -386,157 -150,-63 -220,-235 -157,-385 232,-549 616,-1001 1099,-1318 480,-315 1057,-498 1678,-513 163,-4 298,125 301,288 4,162 -124,297 -287,301 -509,12 -980,160 -1369,416 -387,254 -694,615 -879,1054zm4750 -2708c-135,90 -318,53 -408,-83 -90,-136 -53,-319 83,-409 492,-326 1049,-490 1608,-490 559,0 1118,162 1614,488 136,89 174,272 85,408 -89,136 -272,175 -408,85 -400,-262 -847,-393 -1291,-393 -443,1 -887,132 -1283,394zm2070 8455c0,-173 142,-315 315,-315 174,0 316,142 316,315l0 2238c0,173 -142,315 -316,315 -173,0 -315,-142 -315,-315l0 -2238zm1582 1591l255 -2223c19,-172 177,-297 349,-278 173,20 298,177 278,350l-255 2223c-19,172 -177,297 -349,278 -173,-20 -298,-177 -278,-350zm2057 371c105,-805 159,-1465 212,-2260 31,-456 335,-825 777,-941 1721,-456 2990,-2025 2990,-3890 0,-2222 -1801,-4024 -4023,-4024 -372,0 -732,51 -1074,145 -729,-1026 -1927,-1695 -3282,-1695 -1354,0 -2553,669 -3282,1695 -342,-94 -702,-145 -1074,-145 -2222,0 -4023,1802 -4023,4024 0,1883 1293,3463 3040,3902 434,109 738,460 785,905l259 2442c761,765 2849,1145 4295,1145 1522,0 3735,-455 4400,-1303zm-5159 -2277c174,0 316,142 316,315l0 2238c0,173 -142,315 -316,315 -173,0 -315,-142 -315,-315l0 -2238c0,-173 142,-315 315,-315z"/>
 </g>
</svg>
