<?xml version="1.0" encoding="UTF-8"?>
<!DOCTYPE svg PUBLIC "-//W3C//DTD SVG 1.1//EN" "http://www.w3.org/Graphics/SVG/1.1/DTD/svg11.dtd">
<!-- Creator: CorelDRAW X7 -->
<svg xmlns="http://www.w3.org/2000/svg" xml:space="preserve" width="3.95mm" height="4.4972mm" version="1.1" style="shape-rendering:geometricPrecision; text-rendering:geometricPrecision; image-rendering:optimizeQuality; fill-rule:evenodd; clip-rule:evenodd"
viewBox="0 0 395 449"
 xmlns:xlink="http://www.w3.org/1999/xlink">
 <defs>
  <style type="text/css">
   <![CDATA[
    .fil0 {fill:#2B2A29}
    .fil1 {fill:#2B2A29;fill-rule:nonzero}
   ]]>
  </style>
 </defs>
 <g id="Vrstva_x0020_2">
  <metadata id="CorelCorpID_0Corel-Layer"/>
  <g>
   <path class="fil0" d="M245 212l150 0 0 57 -31 0 -46 138c-7,22 -17,42 -37,42l-152 0c-20,0 -29,-20 -37,-42l-46 -138 -30 0 0 -57 70 0 159 0zm13 85c9,0 16,7 16,16l0 79c0,9 -7,17 -16,17 -9,0 -17,-8 -17,-17l0 -79c0,-9 8,-16 17,-16zm-20 -85l0 -10 0 -38c0,-12 -5,-22 -13,-30 -7,-7 -17,-12 -29,-12l-61 0c-12,0 -22,5 -30,12 -7,8 -12,18 -12,30l0 47 0 1 -4 0 -3 0 0 -48c0,-14 5,-26 14,-35 9,-9 21,-14 35,-14l61 0c14,0 26,5 35,14 9,9 14,21 14,35l0 48 -4 0 -3 0zm-33 85c9,0 17,7 17,16l0 79c0,9 -8,17 -17,17 -9,0 -16,-8 -16,-17l0 -79c0,-9 7,-16 16,-16zm-52 0c9,0 16,7 16,16l0 79c0,9 -7,17 -16,17 -9,0 -17,-8 -17,-17l0 -79c0,-9 8,-16 17,-16z"/>
  </g>
  <path class="fil0" d="M39 95c-2,-3 5,-11 17,-19 11,-8 22,-13 23,-10 2,3 -5,11 -16,19 -12,8 -22,13 -24,10zm43 19c11,-8 22,-13 24,-10 2,3 -6,11 -17,19 -11,8 -22,13 -24,10 -1,-3 6,-11 17,-19zm0 49c0,-27 20,-48 46,-51 -5,-8 -11,-17 -17,-25 -48,-66 -96,-102 -108,-81 -12,21 17,92 65,157 5,7 9,14 14,20l0 -20z"/>
  <path class="fil1" d="M238 212c0,-2 0,-3 0,-4 1,-3 2,-7 4,-10l36 -57c8,-13 20,-16 28,-17 -1,-2 -2,-3 -2,-5 -1,-3 0,-6 2,-9l5 -9c2,-2 5,-4 8,-5 3,-1 6,0 9,1l47 30c3,2 5,5 5,8 1,3 1,6 -1,9l-5 9c-2,3 -5,4 -8,5 -2,0 -3,0 -5,0 3,8 5,20 -4,33l-12 21 -9 0 15 -25c8,-13 4,-25 2,-30 -2,-3 -2,-5 -1,-7 2,-3 4,-3 8,0 1,1 3,1 4,1 1,-1 3,-1 3,-3l5 -8c1,-1 1,-2 1,-4 0,-1 -1,-2 -2,-3l-47 -29c-1,-1 -2,-1 -4,-1 -1,1 -2,1 -3,3l-5 8c-1,1 -1,2 0,4 0,1 1,2 2,3 4,2 5,4 3,7 -1,2 -3,2 -6,3 -6,0 -19,1 -27,14l-36 57c-1,3 -2,5 -3,7 0,1 0,2 0,3 -5,0 -4,0 -7,0z"/>
  <path class="fil0" d="M135 122l61 0c12,0 22,5 29,12 8,8 13,18 13,30l0 38 0 10 0 -4c1,-3 2,-7 4,-10l3 -5 0 -29c0,-14 -5,-26 -14,-35 -9,-9 -21,-14 -35,-14l-61 0c-14,0 -26,5 -35,14 -9,9 -14,21 -14,35l0 48 3 0 4 0 0 -1 0 -47c0,-12 5,-22 12,-30 8,-7 18,-12 30,-12z"/>
 </g>
</svg>
