<?xml version="1.0" encoding="UTF-8"?>
<!DOCTYPE svg PUBLIC "-//W3C//DTD SVG 1.1//EN" "http://www.w3.org/Graphics/SVG/1.1/DTD/svg11.dtd">
<!-- Creator: CorelDRAW X7 -->
<svg xmlns="http://www.w3.org/2000/svg" xml:space="preserve" width="159.575mm" height="157.704mm" version="1.1" style="shape-rendering:geometricPrecision; text-rendering:geometricPrecision; image-rendering:optimizeQuality; fill-rule:evenodd; clip-rule:evenodd"
viewBox="0 0 17052 16852"
 xmlns:xlink="http://www.w3.org/1999/xlink">
 <defs>
  <style type="text/css">
   <![CDATA[
    .str0 {stroke:#2B2A29;stroke-width:8.14267}
    .fil0 {fill:#2B2A29}
   ]]>
  </style>
 </defs>
 <g id="Vrstva_x0020_2">
  <metadata id="CorelCorpID_0Corel-Layer"/>
  <path class="fil0 str0" d="M12960 9605c13,2 25,3 38,5 73,10 149,15 225,15 159,0 314,-22 460,-64 140,-40 272,-98 394,-172 178,-107 335,-246 461,-409 218,-282 348,-635 348,-1018 0,-838 -621,-1532 -1428,-1646l185 -1226c41,-386 612,-1117 1325,-1872 150,-198 262,-256 284,-316l-1123 -1110c-88,66 -131,132 -222,213l-95 76c-1104,992 -2594,1940 -4113,2553 -156,73 -244,96 -395,151 -175,0 -350,0 -525,0l-7586 0 226 1470 -6 1 9 61c-698,104 -1255,640 -1388,1328 -20,103 -30,209 -30,317 0,733 474,1355 1132,1577 167,56 345,86 531,86 83,0 165,-6 245,-18l3 17c23,0 41,0 53,1l464 3080 10038 0c48,-297 125,-740 204,-1208l274 -1807 7 -80 5 0 0 -5z"/>
  <path class="fil0 str0" d="M2663 14058l9161 0c480,1 426,42 458,-182 28,-193 53,-347 101,-609l-9873 0c21,186 124,664 153,791z"/>
  <path class="fil0 str0" d="M12163 14624l-9424 0c86,372 156,1229 267,1542 175,489 628,682 1165,682l6560 0c246,0 442,-33 600,-93 227,-104 408,-289 532,-518 145,-336 164,-769 234,-1189 18,-104 63,-295 66,-424z"/>
  <path class="fil0 str0" d="M14565 1331l1150 1136c431,-414 865,-801 1236,-1106 242,-199 -6,-701 -338,-989 -349,-303 -708,-457 -918,-315 -104,71 -176,173 -257,267 -306,358 -579,686 -873,1007z"/>
 </g>
</svg>
