<svg xmlns="http://www.w3.org/2000/svg" viewBox="0 0 100 100">
    <path d="M61.7 41.97c-13.94 0-22.95 5.83-32.06 15.88-.5.5-.76 1.07-.76 1.8 0 1.38 1.12 2.5 2.5 2.5.73 0 1.27-.27 1.8-.76 1.93-1.8 3.68-3.7 5.57-5.4 7.12-6.4 13.22-9 22.95-9 1.4 0 2.5-1.16 2.5-2.5 0-1.4-1.1-2.6-2.5-2.6z"/>
    <path d="M50 0C22.38 0 0 22.38 0 50s22.38 50 50 50 50-22.38 50-50S77.62 0 50 0zm33.6 44.3c-2.53 12.25-10.42 20.23-21.36 25.65C56.9 72.65 51 74.2 44.98 74.2c-3.77 0-7.67-.6-11.26-1.82-1.88-.63-5.7-3.1-7.26-3.1-1.97 0-4.35 8.03-7.76 8.03-2.46 0-3.23-1.2-4.3-3-.36-.64-.63-.9-.63-1.72 0-4.07 7.8-7.3 7.8-9.6 0-.34-1.03-2.4-1.16-3.2-.2-1.36-.3-2.75-.3-4.1 0-12.5 9.97-21.47 21.18-25.2 8.08-2.7 25.26.45 30.77-4.75 2.15-2.02 3.23-3.85 6.55-3.85 4.43 0 5.9 11.56 5.9 14.88-.05 2.57-.32 5.1-.85 7.64z"/>
</svg>
